# xmcd CD database file
#
# Track frame offsets:
#	150
#	33114
#	54646
#	84784
#	124217
#	149840
#	184959
#	219737
#
# Disc length: 3497 seconds
#
# Revision: 0
# Processed by: cddbd v1.5.2PL0 Copyright (c) Steve Scherf et al.
# Submitted via: CDex 1.70beta2
#
DISCID=750da708
DTITLE=Danilo Perez - Across The Crystal Sea
DYEAR=1900
DGENRE=Jazz
TTITLE0=Across the Crystal Sea
TTITLE1=Rays and Shadows
TTITLE2=Lazy Afternoon
TTITLE3=The Purple Condor
TTITLE4=If I Forget You
TTITLE5=	(All of a Sudden) My Heart Sings
TTITLE6=The Saga of Rita Joe
TTITLE7=Another Autumn
EXTD=
EXTT0=
EXTT1=
EXTT2=
EXTT3=
EXTT4=
EXTT5=
EXTT6=
EXTT7=
PLAYORDER=
